<?xml version="1.0" encoding="UTF-8" standalone="no"?>
<!DOCTYPE svg PUBLIC "-//W3C//DTD SVG 1.1//EN"
 "http://www.w3.org/Graphics/SVG/1.1/DTD/svg11.dtd">
<!-- Generated by graphviz version 2.43.0 (0)
 -->
<!-- Title: Tx_Uart Pages: 1 -->
<svg width="305pt" height="607pt"
 viewBox="0.00 0.00 304.91 607.00" xmlns="http://www.w3.org/2000/svg" xmlns:xlink="http://www.w3.org/1999/xlink">
<g id="graph0" class="graph" transform="scale(1 1) rotate(0) translate(4 603)">
<title>Tx_Uart</title>
<polygon fill="white" stroke="transparent" points="-4,4 -4,-603 300.91,-603 300.91,4 -4,4"/>
<text text-anchor="middle" x="148.46" y="-7.8" font-family="Times,serif" font-size="14.00">Tx_Uart</text>
<!-- n1 -->
<g id="node1" class="node">
<title>n1</title>
<polygon fill="none" stroke="black" points="244.52,-59 206.65,-41 244.52,-23 282.39,-41 244.52,-59"/>
<text text-anchor="middle" x="244.52" y="-37.3" font-family="Times,serif" font-size="14.00">RTS</text>
</g>
<!-- n2 -->
<g id="node2" class="node">
<title>n2</title>
<polygon fill="none" stroke="black" points="244.52,-113 201.12,-95 244.52,-77 287.92,-95 244.52,-113"/>
<text text-anchor="middle" x="244.52" y="-91.3" font-family="Times,serif" font-size="14.00">RTW</text>
</g>
<!-- n3 -->
<g id="node3" class="node">
<title>n3</title>
<polygon fill="none" stroke="black" points="271.52,-141.54 271.52,-156.46 255.7,-167 233.34,-167 217.52,-156.46 217.52,-141.54 233.34,-131 255.7,-131 271.52,-141.54"/>
<text text-anchor="middle" x="244.52" y="-145.3" font-family="Times,serif" font-size="14.00">Tx</text>
</g>
<!-- n4 -->
<g id="node4" class="node">
<title>n4</title>
<polygon fill="none" stroke="black" points="244.52,-221 198.6,-203 244.52,-185 290.44,-203 244.52,-221"/>
<text text-anchor="middle" x="244.52" y="-199.3" font-family="Times,serif" font-size="14.00">buffer</text>
</g>
<!-- n5 -->
<g id="node5" class="node">
<title>n5</title>
<polygon fill="none" stroke="black" points="60.06,-249.54 60.06,-264.46 44.25,-275 21.88,-275 6.06,-264.46 6.06,-249.54 21.88,-239 44.25,-239 60.06,-249.54"/>
<text text-anchor="middle" x="33.06" y="-253.3" font-family="Times,serif" font-size="14.00">clk</text>
</g>
<!-- n6 -->
<g id="node6" class="node">
<title>n6</title>
<polygon fill="none" stroke="black" points="244.52,-329 192.24,-311 244.52,-293 296.8,-311 244.52,-329"/>
<text text-anchor="middle" x="244.52" y="-307.3" font-family="Times,serif" font-size="14.00">counter</text>
</g>
<!-- n7 -->
<g id="node7" class="node">
<title>n7</title>
<polygon fill="none" stroke="black" points="60.44,-357.54 60.44,-372.46 44.4,-383 21.73,-383 5.69,-372.46 5.69,-357.54 21.73,-347 44.4,-347 60.44,-357.54"/>
<text text-anchor="middle" x="33.06" y="-361.3" font-family="Times,serif" font-size="14.00">data</text>
</g>
<!-- n8 -->
<g id="node8" class="node">
<title>n8</title>
<polygon fill="none" stroke="black" points="66.19,-411.54 66.19,-426.46 46.79,-437 19.34,-437 -0.06,-426.46 -0.06,-411.54 19.34,-401 46.79,-401 66.19,-411.54"/>
<text text-anchor="middle" x="33.06" y="-415.3" font-family="Times,serif" font-size="14.00">ready</text>
</g>
<!-- n9 -->
<g id="node9" class="node">
<title>n9</title>
<polygon fill="none" stroke="black" points="60.06,-465.54 60.06,-480.46 44.25,-491 21.88,-491 6.06,-480.46 6.06,-465.54 21.88,-455 44.25,-455 60.06,-465.54"/>
<text text-anchor="middle" x="33.06" y="-469.3" font-family="Times,serif" font-size="14.00">rst</text>
</g>
<!-- n10 -->
<g id="node10" class="node">
<title>n10</title>
<polygon fill="none" stroke="black" points="244.52,-545 206.65,-527 244.52,-509 282.39,-527 244.52,-545"/>
<text text-anchor="middle" x="244.52" y="-523.3" font-family="Times,serif" font-size="14.00">state</text>
</g>
<!-- n11 -->
<g id="node11" class="node">
<title>n11</title>
<polygon fill="none" stroke="black" points="63.97,-573.54 63.97,-588.46 45.87,-599 20.26,-599 2.16,-588.46 2.16,-573.54 20.26,-563 45.87,-563 63.97,-573.54"/>
<text text-anchor="middle" x="33.06" y="-577.3" font-family="Times,serif" font-size="14.00">write</text>
</g>
<!-- v0 -->
<g id="node12" class="node">
<title>v0</title>
<ellipse fill="none" stroke="black" cx="33.06" cy="-41" rx="27" ry="18"/>
<text text-anchor="middle" x="33.06" y="-37.3" font-family="Times,serif" font-size="14.00">1&#39;0</text>
</g>
<!-- x1 -->
<g id="node13" class="node">
<title>x1</title>
<path fill="none" stroke="black" d="M144.13,-59C144.13,-59 114.13,-59 114.13,-59 108.13,-59 102.13,-53 102.13,-47 102.13,-47 102.13,-35 102.13,-35 102.13,-29 108.13,-23 114.13,-23 114.13,-23 144.13,-23 144.13,-23 150.13,-23 156.13,-29 156.13,-35 156.13,-35 156.13,-47 156.13,-47 156.13,-53 150.13,-59 144.13,-59"/>
<text text-anchor="middle" x="129.13" y="-37.3" font-family="Times,serif" font-size="14.00">BUF</text>
</g>
<!-- v0&#45;&gt;x1 -->
<g id="edge7" class="edge">
<title>v0:e&#45;&gt;x1:w</title>
<path fill="none" stroke="black" d="M61.06,-41C75.32,-41 81.23,-41 91.83,-41"/>
<polygon fill="black" stroke="black" points="92.13,-44.5 102.13,-41 92.13,-37.5 92.13,-44.5"/>
</g>
<!-- x1&#45;&gt;n1 -->
<g id="edge1" class="edge">
<title>x1:e&#45;&gt;n1:w</title>
<path fill="none" stroke="black" d="M156.13,-41C174.31,-41 181.2,-41 195.49,-41"/>
<polygon fill="black" stroke="black" points="195.52,-44.5 205.52,-41 195.52,-37.5 195.52,-44.5"/>
</g>
<!-- v2 -->
<g id="node14" class="node">
<title>v2</title>
<ellipse fill="none" stroke="black" cx="33.06" cy="-95" rx="27" ry="18"/>
<text text-anchor="middle" x="33.06" y="-91.3" font-family="Times,serif" font-size="14.00">1&#39;0</text>
</g>
<!-- x3 -->
<g id="node15" class="node">
<title>x3</title>
<path fill="none" stroke="black" d="M144.13,-113C144.13,-113 114.13,-113 114.13,-113 108.13,-113 102.13,-107 102.13,-101 102.13,-101 102.13,-89 102.13,-89 102.13,-83 108.13,-77 114.13,-77 114.13,-77 144.13,-77 144.13,-77 150.13,-77 156.13,-83 156.13,-89 156.13,-89 156.13,-101 156.13,-101 156.13,-107 150.13,-113 144.13,-113"/>
<text text-anchor="middle" x="129.13" y="-91.3" font-family="Times,serif" font-size="14.00">BUF</text>
</g>
<!-- v2&#45;&gt;x3 -->
<g id="edge9" class="edge">
<title>v2:e&#45;&gt;x3:w</title>
<path fill="none" stroke="black" d="M61.06,-95C75.32,-95 81.23,-95 91.83,-95"/>
<polygon fill="black" stroke="black" points="92.13,-98.5 102.13,-95 92.13,-91.5 92.13,-98.5"/>
</g>
<!-- x3&#45;&gt;n2 -->
<g id="edge3" class="edge">
<title>x3:e&#45;&gt;n2:w</title>
<path fill="none" stroke="black" d="M156.13,-95C171.5,-95 177.68,-95 189.32,-95"/>
<polygon fill="black" stroke="black" points="189.52,-98.5 199.52,-95 189.52,-91.5 189.52,-98.5"/>
</g>
<!-- v4 -->
<g id="node16" class="node">
<title>v4</title>
<ellipse fill="none" stroke="black" cx="33.06" cy="-149" rx="27" ry="18"/>
<text text-anchor="middle" x="33.06" y="-145.3" font-family="Times,serif" font-size="14.00">1&#39;1</text>
</g>
<!-- x5 -->
<g id="node17" class="node">
<title>x5</title>
<path fill="none" stroke="black" d="M144.13,-167C144.13,-167 114.13,-167 114.13,-167 108.13,-167 102.13,-161 102.13,-155 102.13,-155 102.13,-143 102.13,-143 102.13,-137 108.13,-131 114.13,-131 114.13,-131 144.13,-131 144.13,-131 150.13,-131 156.13,-137 156.13,-143 156.13,-143 156.13,-155 156.13,-155 156.13,-161 150.13,-167 144.13,-167"/>
<text text-anchor="middle" x="129.13" y="-145.3" font-family="Times,serif" font-size="14.00">BUF</text>
</g>
<!-- v4&#45;&gt;x5 -->
<g id="edge10" class="edge">
<title>v4:e&#45;&gt;x5:w</title>
<path fill="none" stroke="black" d="M61.06,-149C75.32,-149 81.23,-149 91.83,-149"/>
<polygon fill="black" stroke="black" points="92.13,-152.5 102.13,-149 92.13,-145.5 92.13,-152.5"/>
</g>
<!-- x5&#45;&gt;n3 -->
<g id="edge4" class="edge">
<title>x5:e&#45;&gt;n3:w</title>
<path fill="none" stroke="black" d="M156.13,-149C179.19,-149 187.39,-149 206.28,-149"/>
<polygon fill="black" stroke="black" points="206.52,-152.5 216.52,-149 206.52,-145.5 206.52,-152.5"/>
</g>
<!-- v6 -->
<g id="node18" class="node">
<title>v6</title>
<ellipse fill="none" stroke="black" cx="33.06" cy="-203" rx="27" ry="18"/>
<text text-anchor="middle" x="33.06" y="-199.3" font-family="Times,serif" font-size="14.00">8&#39;x</text>
</g>
<!-- x7 -->
<g id="node19" class="node">
<title>x7</title>
<path fill="none" stroke="black" d="M144.13,-221C144.13,-221 114.13,-221 114.13,-221 108.13,-221 102.13,-215 102.13,-209 102.13,-209 102.13,-197 102.13,-197 102.13,-191 108.13,-185 114.13,-185 114.13,-185 144.13,-185 144.13,-185 150.13,-185 156.13,-191 156.13,-197 156.13,-197 156.13,-209 156.13,-209 156.13,-215 150.13,-221 144.13,-221"/>
<text text-anchor="middle" x="129.13" y="-199.3" font-family="Times,serif" font-size="14.00">BUF</text>
</g>
<!-- v6&#45;&gt;x7 -->
<g id="edge11" class="edge">
<title>v6:e&#45;&gt;x7:w</title>
<path fill="none" stroke="black" stroke-width="3" d="M61.06,-203C75.32,-203 81.23,-203 91.83,-203"/>
<polygon fill="black" stroke="black" stroke-width="3" points="92.13,-206.5 102.13,-203 92.13,-199.5 92.13,-206.5"/>
</g>
<!-- x7&#45;&gt;n4 -->
<g id="edge5" class="edge">
<title>x7:e&#45;&gt;n4:w</title>
<path fill="none" stroke="black" stroke-width="3" d="M156.13,-203C170.64,-203 176.57,-203 187.46,-203"/>
<polygon fill="black" stroke="black" stroke-width="3" points="187.52,-206.5 197.52,-203 187.52,-199.5 187.52,-206.5"/>
</g>
<!-- v8 -->
<g id="node20" class="node">
<title>v8</title>
<ellipse fill="none" stroke="black" cx="33.06" cy="-311" rx="29.8" ry="18"/>
<text text-anchor="middle" x="33.06" y="-307.3" font-family="Times,serif" font-size="14.00">3&#39;000</text>
</g>
<!-- x9 -->
<g id="node21" class="node">
<title>x9</title>
<path fill="none" stroke="black" d="M144.13,-329C144.13,-329 114.13,-329 114.13,-329 108.13,-329 102.13,-323 102.13,-317 102.13,-317 102.13,-305 102.13,-305 102.13,-299 108.13,-293 114.13,-293 114.13,-293 144.13,-293 144.13,-293 150.13,-293 156.13,-299 156.13,-305 156.13,-305 156.13,-317 156.13,-317 156.13,-323 150.13,-329 144.13,-329"/>
<text text-anchor="middle" x="129.13" y="-307.3" font-family="Times,serif" font-size="14.00">BUF</text>
</g>
<!-- v8&#45;&gt;x9 -->
<g id="edge12" class="edge">
<title>v8:e&#45;&gt;x9:w</title>
<path fill="none" stroke="black" stroke-width="3" d="M64.06,-311C77.02,-311 82.53,-311 92,-311"/>
<polygon fill="black" stroke="black" stroke-width="3" points="92.13,-314.5 102.13,-311 92.13,-307.5 92.13,-314.5"/>
</g>
<!-- x9&#45;&gt;n6 -->
<g id="edge6" class="edge">
<title>x9:e&#45;&gt;n6:w</title>
<path fill="none" stroke="black" stroke-width="3" d="M156.13,-311C168.13,-311 173.38,-311 182,-311"/>
<polygon fill="black" stroke="black" stroke-width="3" points="182.13,-314.5 192.13,-311 182.13,-307.5 182.13,-314.5"/>
</g>
<!-- v10 -->
<g id="node22" class="node">
<title>v10</title>
<ellipse fill="none" stroke="black" cx="33.06" cy="-527" rx="29.8" ry="18"/>
<text text-anchor="middle" x="33.06" y="-523.3" font-family="Times,serif" font-size="14.00">3&#39;000</text>
</g>
<!-- x11 -->
<g id="node23" class="node">
<title>x11</title>
<path fill="none" stroke="black" d="M144.13,-545C144.13,-545 114.13,-545 114.13,-545 108.13,-545 102.13,-539 102.13,-533 102.13,-533 102.13,-521 102.13,-521 102.13,-515 108.13,-509 114.13,-509 114.13,-509 144.13,-509 144.13,-509 150.13,-509 156.13,-515 156.13,-521 156.13,-521 156.13,-533 156.13,-533 156.13,-539 150.13,-545 144.13,-545"/>
<text text-anchor="middle" x="129.13" y="-523.3" font-family="Times,serif" font-size="14.00">BUF</text>
</g>
<!-- v10&#45;&gt;x11 -->
<g id="edge8" class="edge">
<title>v10:e&#45;&gt;x11:w</title>
<path fill="none" stroke="black" stroke-width="3" d="M64.06,-527C77.02,-527 82.53,-527 92,-527"/>
<polygon fill="black" stroke="black" stroke-width="3" points="92.13,-530.5 102.13,-527 92.13,-523.5 92.13,-530.5"/>
</g>
<!-- x11&#45;&gt;n10 -->
<g id="edge2" class="edge">
<title>x11:e&#45;&gt;n10:w</title>
<path fill="none" stroke="black" stroke-width="3" d="M156.13,-527C174.31,-527 181.2,-527 195.49,-527"/>
<polygon fill="black" stroke="black" stroke-width="3" points="195.52,-530.5 205.52,-527 195.52,-523.5 195.52,-530.5"/>
</g>
</g>
</svg>
